<svg width="20" height="20" viewBox="0 0 20 20" fill="none" xmlns="http://www.w3.org/2000/svg">
<mask id="mask0_267_124" style="mask-type:alpha" maskUnits="userSpaceOnUse" x="0" y="0" width="20" height="20">
<rect width="20" height="20" fill="#D9D9D9"/>
</mask>
<g mask="url(#mask0_267_124)">
<path fill-rule="evenodd" clip-rule="evenodd" d="M2.36048 2.36048C2.84113 1.87984 3.62041 1.87984 4.10105 2.36048L17.6395 15.8989C18.1202 16.3796 18.1202 17.1589 17.6395 17.6395C17.1589 18.1202 16.3796 18.1202 15.8989 17.6395L2.36048 4.10105C1.87984 3.62041 1.87984 2.84113 2.36048 2.36048Z" fill="#806660" stroke="#806660"/>
<path fill-rule="evenodd" clip-rule="evenodd" d="M2.36048 17.6395C2.84113 18.1202 3.62041 18.1202 4.10105 17.6395L17.6395 4.10105C18.1202 3.62041 18.1202 2.84113 17.6395 2.36048C17.1589 1.87984 16.3796 1.87984 15.8989 2.36048L2.36048 15.8989C1.87984 16.3796 1.87984 17.1589 2.36048 17.6395Z" fill="#806660" stroke="#806660"/>
</g>
</svg>
