<svg width="20" height="20" viewBox="0 0 20 20" fill="none" xmlns="http://www.w3.org/2000/svg">
<mask id="mask0_267_124" style="mask-type:alpha" maskUnits="userSpaceOnUse" x="0" y="0" width="20" height="20">
<rect width="20" height="20" fill="#D9D9D9"/>
</mask>
<g mask="url(#mask0_267_124)">
<path d="M2.17468 18.9762C1.81802 19.0476 1.51932 18.9584 1.27858 18.7087C1.03783 18.459 0.953125 18.1559 1.02446 17.7992L1.90718 13.5727L6.40107 18.0935L2.17468 18.9762ZM7.97928 16.9432L3.0574 12.0211L13.5164 1.56176C13.8909 1.18725 14.3412 1 14.8672 1C15.3933 1 15.8436 1.18725 16.2181 1.56176L18.4383 3.75528C18.8128 4.12979 19 4.58454 19 5.11955C19 5.65456 18.8128 6.10931 18.4383 6.48382L7.97928 16.9432Z" fill="#806660"/>
</g>
</svg>
