<svg width="20" height="20" viewBox="0 0 20 20" fill="none" xmlns="http://www.w3.org/2000/svg">
<mask id="mask0_227_66" style="mask-type:alpha" maskUnits="userSpaceOnUse" x="0" y="0" width="20" height="20">
<rect width="20" height="20" fill="#D9D9D9"/>
</mask>
<g mask="url(#mask0_227_66)">
<path d="M3.89584 17C3.61806 17.0556 3.38542 16.9861 3.19792 16.7917C3.01042 16.5972 2.94445 16.3611 3 16.0833L3.6875 12.7917L7.1875 16.3125L3.89584 17ZM8.41667 15.4167L4.58334 11.5833L12.7292 3.4375C13.0208 3.14583 13.3715 3 13.7813 3C14.191 3 14.5417 3.14583 14.8333 3.4375L16.5625 5.14583C16.8542 5.4375 17 5.79167 17 6.20833C17 6.625 16.8542 6.97917 16.5625 7.27083L8.41667 15.4167Z" fill="#806660"/>
</g>
</svg>
