<svg width="18" height="20" viewBox="0 0 18 20" fill="none" xmlns="http://www.w3.org/2000/svg">
<g id="tomato1" clip-path="url(#clip0_227_59)">
<path id="Vector" d="M17.9752 10.1743C17.9032 9.19975 17.6164 8.27957 17.1502 7.42297C16.4852 6.20126 15.5222 5.26711 14.3001 4.59753C13.795 4.32081 13.2706 4.09167 12.7035 3.97226C12.5383 3.93748 12.3712 3.91198 12.2079 3.88276C12.2071 3.86667 12.2053 3.86157 12.207 3.85829C12.2129 3.84706 12.2183 3.83491 12.2268 3.82584C12.7868 3.23012 13.4547 2.90876 14.2925 3.02712C14.4913 3.0552 14.6304 2.99426 14.6815 2.8421C14.7306 2.69612 14.6752 2.57907 14.4997 2.49547C13.5109 2.02418 12.4878 1.94075 11.4556 2.30853C10.5466 2.6324 9.94677 3.29976 9.55917 4.16673C9.54334 4.20215 9.52599 4.23688 9.50933 4.27194C9.47612 4.21245 9.46992 4.15981 9.46729 4.10699C9.42325 3.21503 9.50902 2.35179 10.0042 1.57106C10.1721 1.30628 10.1389 1.16356 9.88964 0.967059C9.6398 0.770126 9.35253 0.651951 9.03985 0.593543C8.77 0.543131 8.58653 0.644519 8.53342 0.912777C8.47905 1.18742 8.43889 1.46805 8.42805 1.74741C8.40074 2.45131 8.4454 3.15339 8.5225 3.85367C8.53749 3.98969 8.52467 4.12875 8.52467 4.30562C8.48644 4.23688 8.46105 4.19741 8.44154 4.15525C8.04427 3.29619 7.42508 2.66167 6.53399 2.31319C5.75036 2.00675 4.94971 2.03028 4.15022 2.24274C3.91186 2.3061 3.68158 2.40502 3.4547 2.50385C3.30907 2.56728 3.2511 2.71775 3.29473 2.84192C3.34452 2.9836 3.46734 3.05321 3.63205 3.03227C3.68292 3.02581 3.73333 3.01453 3.78435 3.01048C4.43896 2.95851 5.00539 3.17389 5.50611 3.58062C5.6106 3.66551 5.70374 3.76423 5.82363 3.87677C5.14183 3.98038 4.61273 4.14469 3.9227 4.48681C2.39497 5.24423 1.26951 6.39876 0.58875 7.95441C-0.0237926 9.35414 -0.133666 10.8227 0.144184 12.3165C0.469428 14.0652 1.31055 15.5441 2.57028 16.7943C3.25702 17.4759 4.05077 18.0036 4.9183 18.4305C6.08634 19.0052 7.31714 19.3442 8.61758 19.4078C9.34226 19.4433 10.0642 19.3893 10.7767 19.2339C13.0903 18.7295 15 17.5919 16.4007 15.6668C17.5927 14.0282 18.1244 12.1942 17.9752 10.1743H17.9752ZM11.2901 3.12358C11.3233 3.07561 11.3681 3.02901 11.4183 3.00046C11.7989 2.7842 12.2114 2.69842 12.6363 2.7065C12.3948 2.85814 12.1511 3.00546 11.9143 3.16303C11.8338 3.21664 11.7782 3.3078 11.6971 3.36021C11.6264 3.40589 11.5363 3.44384 11.4541 3.44512C11.2844 3.44781 11.1942 3.26259 11.2901 3.12358ZM5.30343 2.73028C5.30533 2.71662 5.30724 2.70299 5.30914 2.68933C5.47238 2.70519 5.64183 2.69883 5.79742 2.74199C6.04716 2.81127 6.2909 2.90571 6.5307 3.00502C6.63633 3.04877 6.73541 3.12904 6.71775 3.26718C6.70164 3.3933 6.54805 3.4809 6.42077 3.43828C6.36581 3.41988 6.30928 3.38774 6.26914 3.34663C5.99541 3.06633 5.67189 2.86435 5.3034 2.73026L5.30343 2.73028ZM3.9271 5.76088C4.16124 5.26709 4.56106 4.94444 5.03943 4.70599C5.70312 4.37515 6.39609 4.35472 7.10406 4.52426C7.28308 4.56713 7.35359 4.6473 7.32715 4.75092C7.30195 4.84969 7.21105 4.87332 7.03249 4.85085C6.65908 4.80384 6.28876 4.81079 5.93517 4.96103C5.8695 4.98894 5.79026 5.02102 5.75538 5.07538C5.71756 5.13435 5.69985 5.228 5.71749 5.295C5.74156 5.38641 5.83403 5.4164 5.92732 5.39428C5.98887 5.37967 6.04752 5.3513 6.10606 5.32585C6.22409 5.27452 6.32691 5.3055 6.37673 5.40981C6.42585 5.51269 6.39161 5.59696 6.26894 5.65636C5.89674 5.83661 5.50484 5.95476 5.09493 6.01045C4.88347 6.03918 4.6708 6.05923 4.45868 6.08321C4.45801 6.07437 4.45736 6.06553 4.4567 6.05669C4.33261 6.05669 4.20737 6.0674 4.08473 6.05413C3.91119 6.03531 3.85206 5.91916 3.92712 5.76088H3.9271ZM5.43899 6.81272C5.37368 6.97023 5.29426 7.12201 5.23029 7.28001C5.14915 7.48043 5.02457 7.64233 4.84359 7.76191C3.93804 8.36027 3.45504 9.22612 3.26634 10.2682C3.21047 10.5768 3.21122 10.8951 3.17181 11.2071C3.13564 11.4935 2.91674 11.6996 2.64821 11.7249C2.43366 11.7452 2.16356 11.5891 2.09936 11.3774C2.0506 11.2166 2.02269 11.0437 2.02014 10.8757C2.00449 9.83842 2.30469 8.89248 2.87455 8.02776C2.91437 7.96735 2.95185 7.90451 2.98241 7.83911C3.06484 7.66263 3.03997 7.51462 2.91326 7.39426C2.79273 7.27975 2.59703 7.243 2.45091 7.34406C2.32006 7.43455 2.20032 7.55114 2.10232 7.6768C1.6758 8.22364 1.44421 8.85773 1.29181 9.52562C1.19076 9.96839 1.14556 10.4158 1.16093 10.7756C1.14373 11.8648 1.37439 12.8043 1.80137 13.6999C1.82889 13.7577 1.85508 13.8163 1.87763 13.8761C1.93385 14.0252 1.89225 14.155 1.77084 14.2177C1.64393 14.2833 1.49546 14.246 1.41872 14.1082C1.32548 13.9408 1.23965 13.7676 1.16868 13.5898C0.8891 12.8892 0.695302 12.169 0.640417 11.4117C0.549851 10.1615 0.76342 8.97278 1.33439 7.8543C1.70162 7.13495 2.19183 6.50868 2.83014 6.00505C2.92287 5.93188 3.03145 5.87706 3.13747 5.82303C3.16887 5.80701 3.21663 5.82277 3.25692 5.82398C3.25434 5.86309 3.26268 5.90712 3.24744 5.94051C3.11373 6.23361 3.19536 6.4474 3.49839 6.56089C3.85504 6.69444 4.22982 6.69508 4.60238 6.68086C4.83258 6.67207 5.06133 6.62986 5.29138 6.60994C5.35036 6.60484 5.41173 6.62729 5.472 6.63711C5.46162 6.6959 5.46129 6.75882 5.43894 6.81272H5.43899ZM7.59463 6.09054C6.81275 6.6642 6.38213 7.44688 6.28168 8.40963C6.23305 8.8758 6.24922 9.3362 6.38357 9.78888C6.42502 9.92856 6.42837 9.93179 6.5522 9.865C6.98041 9.63403 7.3641 9.34171 7.72924 9.02334C7.78382 8.97575 7.83958 8.92672 7.90232 8.89182C8.02699 8.82241 8.14673 8.85148 8.23307 8.9613C8.31298 9.06292 8.30891 9.18429 8.2046 9.28345C7.66779 9.79378 7.06902 10.2161 6.39117 10.5214C6.227 10.5953 6.12292 10.5531 6.04803 10.3905C5.81655 9.88794 5.69972 9.35839 5.68626 8.97316C5.66929 7.88883 5.90711 7.05153 6.49538 6.33102C6.96896 5.75096 7.58284 5.40064 8.32122 5.277C8.63905 5.2238 8.9619 5.24115 9.27944 5.29697C9.35052 5.30948 9.42682 5.35223 9.47643 5.4041C9.50763 5.43672 9.51023 5.51792 9.49342 5.5662C9.48403 5.59316 9.40729 5.61341 9.36337 5.60946C8.71308 5.55123 8.11601 5.70803 7.59463 6.09057V6.09054ZM9.78757 7.77424C9.69121 7.9683 9.58298 8.15678 9.47427 8.34441C9.41475 8.44713 9.27586 8.47934 9.17055 8.42545C9.04904 8.36325 8.99722 8.24609 9.05367 8.12664C9.14818 7.92671 9.24518 7.72716 9.35636 7.53622C9.39351 7.47241 9.47718 7.4354 9.53956 7.38614C9.75457 7.42069 9.87335 7.6015 9.78757 7.77424ZM12.3358 8.77572C12.2739 9.0481 12.1555 9.10469 11.9166 8.96245C11.1529 8.50766 10.5634 7.89831 10.2907 7.03948C10.1911 6.72586 10.1615 6.38935 10.1108 6.06161C10.0939 5.95225 10.1282 5.84663 10.2527 5.8035C10.3822 5.7586 10.4619 5.83584 10.5155 5.93129C10.6468 6.16556 10.7668 6.40611 10.8928 6.64334C11.1169 7.06521 11.334 7.49112 11.571 7.90569C11.6604 8.06198 11.7971 8.19143 11.9122 8.33313L11.9621 8.32103C11.9733 8.20827 11.9881 8.0957 11.9953 7.98265C12.047 7.16955 11.7618 6.48746 11.1827 5.92029C11.1522 5.89041 11.1098 5.86268 11.098 5.82595C11.0789 5.7669 11.0522 5.67656 11.0805 5.64427C11.1186 5.60065 11.2062 5.58358 11.2717 5.5853C11.3203 5.58655 11.3718 5.63061 11.4148 5.66467C11.9597 6.0969 12.2656 6.66615 12.3894 7.34247C12.4778 7.82514 12.4437 8.30109 12.3358 8.77574L12.3358 8.77572ZM13.8958 7.84646C13.8644 7.95539 13.7867 8.01664 13.651 8.02274C13.6273 8.01546 13.5824 8.01039 13.5472 7.98932C13.3933 7.89728 13.2368 7.80802 13.0917 7.70343C12.959 7.60781 12.9492 7.43022 13.0559 7.32284C13.131 7.24733 13.2182 7.22993 13.312 7.28442C13.4672 7.37458 13.6236 7.46316 13.7735 7.5616C13.8721 7.62639 13.9315 7.72267 13.8958 7.84646ZM14.4055 6.6723C13.9729 6.64562 13.5464 6.57665 13.1328 6.44381C13.0199 6.40755 12.9373 6.33574 12.9448 6.20152C12.9509 6.09234 13.0389 5.97916 13.148 5.96886C13.2215 5.96194 13.2993 5.98449 13.3732 6.00207C13.5842 6.05223 13.7941 6.10659 14.0044 6.15931C14.0112 6.14665 14.0179 6.13399 14.0247 6.1213C13.8549 5.84364 13.6467 5.59752 13.3898 5.39472C12.7737 4.90843 12.0653 4.73859 11.2921 4.79895C11.1985 4.80625 11.1044 4.83424 11.0127 4.82665C10.952 4.82163 10.8663 4.78413 10.843 4.73641C10.8015 4.65117 10.8603 4.57113 10.9489 4.5517C11.1488 4.50785 11.3507 4.46413 11.5541 4.44642C12.2807 4.38317 12.9493 4.56524 13.5509 4.96928C14.0659 5.31519 14.4442 5.77585 14.637 6.37246C14.7008 6.57006 14.6141 6.68516 14.4055 6.67227L14.4055 6.6723Z" fill="#E6646B"/>
</g>
<defs>
<clipPath id="clip0_227_59">
<rect width="18" height="18.8372" fill="white" transform="translate(0 0.581299)"/>
</clipPath>
</defs>
</svg>
