<svg width="20" height="21" viewBox="0 0 20 21" fill="none" xmlns="http://www.w3.org/2000/svg">
<path d="M2.85714 0.428589C1.28125 0.428589 0 1.70984 0 3.28573V17.5714C0 19.1473 1.28125 20.4286 2.85714 20.4286H17.1429C18.7188 20.4286 20 19.1473 20 17.5714V6.73662C20 5.9777 19.7009 5.25002 19.1652 4.7143L15.7143 1.26341C15.1786 0.727696 14.4509 0.428589 13.692 0.428589H2.85714ZM2.85714 4.7143C2.85714 3.92412 3.49554 3.28573 4.28571 3.28573H12.8571C13.6473 3.28573 14.2857 3.92412 14.2857 4.7143V7.57145C14.2857 8.36162 13.6473 9.00002 12.8571 9.00002H4.28571C3.49554 9.00002 2.85714 8.36162 2.85714 7.57145V4.7143ZM10 11.8572C11.5759 11.8572 12.8571 13.1384 12.8571 14.7143C12.8571 16.2902 11.5759 17.5714 10 17.5714C8.42411 17.5714 7.14286 16.2902 7.14286 14.7143C7.14286 13.1384 8.42411 11.8572 10 11.8572Z" fill="#806660"/>
</svg>
